# xmcd
#
# Track frame offsets:
#	150
#	16598
#	31941
#	48714
#	59469
#	77008
#	92237
#	104686
#	122370
#	147438
#	160410
#	176209
#	192871
#	208069
#
# Disc length: 2977
#
# Revision: 2
# Processed by: cddbd v1.5.1PL0 Copyright (c) Steve Scherf et al.
# Submitted via: ExactAudioCopy v0.90b4
# Normalized: r0:DSETVAR1,TDELIM( - );r1:TSWAP
#
DISCID=c30b9f0e
DTITLE=Various Artist - Jos Slijpen Maart 2003
DYEAR=2003
DGENRE=Dance
TTITLE0=In Grid - Tu Es Foutu
TTITLE1=Marty Stuart - Don't Leave Her Lonely Too Long
TTITLE2=The Deans - Cha Cha D'amour
TTITLE3=The Mavericks - Think Of Me
TTITLE4=The Deans - Haley's Medley
TTITLE5=Johnny Fereirra - Mexico
TTITLE6=Hank Wlliams Junior - Born To Boogie
TTITLE7=Keith Urban - Sombody Like You
TTITLE8=Peashes and Herb - Shake Your Grove Thing
TTITLE9=Roger Brown - Just A Rodeo
TTITLE10=Blue - One Love
TTITLE11=Collin Raye - Couldn't Last A Moment
TTITLE12=Shakin' Stevens - A Love Worth Waiting For
TTITLE13=Atomic Kitten - So Hot
EXTD=
EXTT0=
EXTT1=
EXTT2=
EXTT3=
EXTT4=
EXTT5=
EXTT6=
EXTT7=
EXTT8=
EXTT9=
EXTT10=
EXTT11=
EXTT12=
EXTT13=
PLAYORDER=
